<svg width="549" height="103" viewBox="0 0 549 103" fill="none" xmlns="http://www.w3.org/2000/svg">
<g clip-path="url(#clip0_331_38)">
<path d="M469.044 70.7C447.614 70.7 435.584 54.9 435.584 35.79V35.6C435.584 17.27 448.864 0.5 469.134 0.5C480.194 0.5 487.164 3.8 493.954 9.42L490.654 13.2C485.324 8.55 479.114 5.05 468.834 5.05C452.354 5.05 440.814 19.02 440.814 35.4V35.6C440.814 53.15 450.904 66.24 469.034 66.24" fill="#ED1D7E"/>
<path d="M128.224 36.53V36.34C128.224 17.82 141.894 1.23999 162.454 1.23999C183.014 1.23999 196.494 17.63 196.494 36.14V36.34C196.494 54.86 182.824 71.44 162.264 71.44C141.704 71.44 128.234 55.06 128.234 36.53H128.224ZM191.254 36.53V36.34C191.254 19.56 179.034 5.78999 162.264 5.78999C145.494 5.78999 133.464 19.37 133.464 36.14V36.34C133.464 53.11 145.684 66.88 162.454 66.88C179.224 66.88 191.254 53.31 191.254 36.53Z" fill="#3953A4"/>
<path d="M386.394 1.44994V6.31994C405.144 6.31994 418.094 19.1899 418.094 35.9699V36.1399C418.094 52.9299 405.144 65.9599 386.394 65.9599V70.8299C408.204 70.8299 423.274 55.6599 423.274 36.1399V35.9399C423.274 16.4099 408.204 1.43994 386.394 1.43994V1.44994Z" fill="#6A52A2"/>
<path d="M127.224 70.2701L73.6636 1.11011H68.6436V70.3801H73.5835V9.03011L122.184 70.2701H127.224Z" fill="#6ABD45"/>
<path d="M200.394 1.85992L225.024 70.2199H229.094L249.004 11.4999L268.854 70.2199H273.534L251.104 1.66992H247.224L227.274 60.3999L206.024 1.85992H200.394Z" fill="#FFD500"/>
<path d="M294.494 1.15991H299.604V65.3199H311.294V70.3499H294.494V1.15991Z" fill="#B9529F"/>
<path d="M492.654 34.0601H462.104V38.8401H492.654V34.0601Z" fill="#4377BC"/>
<path d="M469.104 85.1399H1.01367V89.9199H469.104V85.1399Z" fill="#B9529F"/>
<path d="M368.244 2.08008H333.014V6.86008H368.244V2.08008Z" fill="#F37121"/>
<path d="M368.244 65.3701H333.014V70.1501H368.244V65.3701Z" fill="#ED1D7E"/>
<path d="M353.434 33.6101H333.014V38.3901H353.434V33.6101Z" fill="#93C83E"/>
<path d="M510.764 1.29004V70.43H547.944V65.98H515.904V37.94H529.634V33.35H515.904V1.34004L510.764 1.29004Z" fill="#70C169"/>
<path d="M0.84375 1.49989V57.2799L55.9437 1.38989H49.0838L5.90375 46.0299V1.49989H0.84375Z" fill="#ED2024"/>
<path d="M30.1539 34.98L26.7939 38.34L52.2939 70.27H57.3339L30.1539 34.98Z" fill="#6FCCDD"/>
<path d="M486.434 84.9399H487.734V101.24H498.004V102.44H486.434V84.9399Z" fill="#B9529F"/>
<path d="M515.054 84.8201H516.304L524.454 102.44H523.024L520.804 97.5401H510.484L508.264 102.44H506.914L515.064 84.8201H515.054ZM520.254 96.3701L515.654 86.2501L511.034 96.3701H520.254Z" fill="#B9529F"/>
<path d="M534.654 84.9399H541.874C543.844 84.9399 545.444 85.5099 546.424 86.4899C547.144 87.2199 547.544 88.1399 547.544 89.2399V89.2899C547.544 91.6599 545.994 92.8599 544.574 93.4399C546.674 93.9899 548.524 95.1899 548.524 97.6099V97.6599C548.524 100.58 546.024 102.43 542.254 102.43H534.654V84.9299V84.9399ZM541.734 93.0199C544.354 93.0199 546.234 91.7499 546.234 89.4199V89.3699C546.234 87.4499 544.664 86.1499 541.864 86.1499H535.964V93.0199H541.734ZM542.304 101.24C545.304 101.24 547.204 99.8699 547.204 97.6699V97.6199C547.204 95.4699 545.334 94.2199 541.884 94.2199H535.964V101.24H542.314H542.304Z" fill="#B9529F"/>
</g>
<defs>
<clipPath id="clip0_331_38">
<rect width="547.69" height="101.94" fill="white" transform="translate(0.84375 0.5)"/>
</clipPath>
</defs>
</svg>
