<?xml version="1.0" encoding="UTF-8"?>
<svg xmlns="http://www.w3.org/2000/svg" version="1.1" viewBox="0 0 576 163">
  <defs>
    <style>
      .cls-1 {
        fill: #477f68;
      }

      .cls-2 {
        fill: #662754;
      }

      .cls-3 {
        fill: #d35e27;
      }

      .cls-4 {
        fill: #abc6db;
      }

      .cls-5 {
        fill: #d4605d;
      }

      .cls-6 {
        fill: #d25056;
      }

      .cls-7 {
        fill: #fbd234;
      }

      .cls-8 {
        fill: #777495;
      }

      .cls-9 {
        fill: #e67748;
      }

      .cls-10 {
        fill: #1b62a0;
      }
    </style>
  </defs>
  <!-- Generator: Adobe Illustrator 28.6.0, SVG Export Plug-In . SVG Version: 1.2.0 Build 709)  -->
  <g>
    <g id="Layer_1">
      <path class="cls-1" d="M485.8,111.8c-21.4,0-33.5-15.8-33.5-34.9v-.2c0-18.3,13.3-35.1,33.6-35.1s18,3.3,24.8,8.9l-3.3,3.8c-5.3-4.7-11.5-8.1-21.8-8.1-16.5,0-28,14-28,30.4v.2c0,17.5,10.1,30.6,28.2,30.6"/>
      <path class="cls-4" d="M145,77.7v-.2c0-18.5,13.7-35.1,34.2-35.1s34,16.4,34,34.9v.2c0,18.5-13.7,35.1-34.2,35.1s-34-16.4-34-34.9ZM208,77.7v-.2c0-16.8-12.2-30.6-29-30.6s-28.8,13.6-28.8,30.4v.2c0,16.8,12.2,30.5,29,30.5s28.8-13.6,28.8-30.4Z"/>
      <path class="cls-2" d="M403.1,42.6v4.9c18.7,0,31.7,12.9,31.7,29.7v.2c0,16.8-13,29.8-31.7,29.8v4.9c21.8,0,36.9-15.2,36.9-34.7v-.2c0-19.5-15.1-34.5-36.9-34.5Z"/>
      <polygon class="cls-3" points="144 111.4 90.4 42.3 85.4 42.3 85.4 111.5 90.3 111.5 90.3 50.2 138.9 111.4 144 111.4"/>
      <polygon class="cls-2" points="217.1 43 241.8 111.4 245.8 111.4 265.7 52.6 285.6 111.4 290.3 111.4 267.8 42.8 264 42.8 244 101.5 222.8 43 217.1 43"/>
      <polygon class="cls-1" points="311.2 42.3 316.3 42.3 316.3 106.5 328 106.5 328 111.5 311.2 111.5 311.2 42.3"/>
      <rect class="cls-2" x="478.8" y="75.2" width="30.6" height="4.8"/>
      <rect class="cls-2" x="17.6" y="126" width="468.1" height="4.8"/>
      <rect class="cls-5" x="349.7" y="43.2" width="35.2" height="4.8"/>
      <rect class="cls-9" x="349.7" y="106.5" width="35.2" height="4.8"/>
      <rect class="cls-7" x="349.7" y="74.8" width="20.4" height="4.8"/>
      <polygon class="cls-8" points="527.5 42.4 527.5 111.6 564.7 111.6 564.7 107.1 532.6 107.1 532.6 79.1 546.4 79.1 546.4 74.5 532.6 74.5 532.6 42.5 527.5 42.4"/>
      <polygon class="cls-10" points="17.6 42.6 17.6 98.4 72.7 42.5 65.8 42.5 22.6 87.2 22.6 42.6 17.6 42.6"/>
      <polygon class="cls-1" points="46.9 76.1 43.5 79.5 69 111.4 74.1 111.4 46.9 76.1"/>
      <g>
        <path class="cls-6" d="M503.2,126.1h1.3v16.3h10.3v1.2h-11.6v-17.5Z"/>
        <path class="cls-6" d="M531.8,126h1.2l8.1,17.6h-1.4l-2.2-4.9h-10.3l-2.2,4.9h-1.3l8.1-17.6ZM537,137.5l-4.6-10.1-4.6,10.1h9.2Z"/>
        <path class="cls-6" d="M551.4,126.1h7.2c2,0,3.6.6,4.5,1.5.7.7,1.1,1.6,1.1,2.7h0c0,2.4-1.5,3.6-3,4.2,2.1.6,3.9,1.8,3.9,4.2h0c0,3-2.5,4.8-6.3,4.8h-7.6v-17.5ZM558.5,134.2c2.6,0,4.5-1.3,4.5-3.6h0c0-2-1.6-3.3-4.4-3.3h-5.9v6.9h5.8ZM559,142.4c3,0,4.9-1.4,4.9-3.6h0c0-2.2-1.9-3.4-5.3-3.4h-5.9v7h6.3Z"/>
      </g>
    </g>
  </g>
</svg>