<?xml version="1.0" encoding="UTF-8"?>
<svg xmlns="http://www.w3.org/2000/svg" version="1.1" viewBox="0 0 1359 384.6">
  <defs>
    <style>
      .cls-1 {
        fill: #4377bc;
      }

      .cls-2 {
        fill: #3953a4;
      }

      .cls-3 {
        fill: #6a52a2;
      }

      .cls-4 {
        fill: #ed1d7e;
      }

      .cls-5 {
        fill: #93c83e;
      }

      .cls-6, .cls-7 {
        isolation: isolate;
      }

      .cls-8 {
        fill: #f7ec13;
      }

      .cls-7 {
        fill: #231f20;
        font-family: ArialMT, Arial;
        font-size: 42px;
      }

      .cls-9 {
        fill: #70c169;
      }

      .cls-10 {
        fill: #b9529f;
      }

      .cls-11 {
        fill: #ed2024;
      }

      .cls-12 {
        fill: #6abd45;
      }

      .cls-13 {
        fill: #f37121;
      }

      .cls-14 {
        fill: #6fccdd;
      }
    </style>
  </defs>
  <!-- Generator: Adobe Illustrator 28.6.0, SVG Export Plug-In . SVG Version: 1.2.0 Build 709)  -->
  <g>
    <g id="Layer_1">
      <path class="cls-9" d="M1150.5,249.9c-51.8,0-80.9-38.2-80.9-84.4v-.5c0-44.3,32.1-84.8,81.1-84.8s43.6,8,60,21.6l-8,9.1c-12.9-11.2-27.9-19.7-52.7-19.7-39.8,0-67.7,33.8-67.7,73.3v.5c0,42.4,24.4,74,68.2,74"/>
      <path class="cls-14" d="M327,167.3v-.5c0-44.8,33-84.8,82.7-84.8s82.2,39.6,82.2,84.3v.5c0,44.7-33,84.8-82.7,84.8s-82.2-39.6-82.2-84.4h0ZM479.3,167.3v-.5c0-40.5-29.5-73.8-70.1-73.8s-69.6,32.8-69.6,73.3v.5c0,40.5,29.5,73.8,70.1,73.8s69.6-32.8,69.6-73.3Z"/>
      <path class="cls-3" d="M950.8,82.5v11.8c45.3,0,76.6,31.1,76.6,71.7v.4c0,40.6-31.3,72.1-76.6,72.1v11.8c52.7,0,89.1-36.6,89.1-83.8v-.5c0-47.2-36.4-83.4-89.1-83.4h0Z"/>
      <polygon class="cls-13" points="324.6 248.8 195.1 81.7 183 81.7 183 249.1 195 249.1 195 100.9 312.4 248.8 324.6 248.8"/>
      <polygon class="cls-10" points="501.4 83.5 560.9 248.7 570.7 248.7 618.8 106.8 666.8 248.7 678.1 248.7 623.9 83.1 614.5 83.1 566.3 225 515 83.5 501.4 83.5"/>
      <polygon class="cls-8" points="728.7 81.8 741.1 81.8 741.1 236.9 769.4 236.9 769.4 249 728.7 249 728.7 81.8"/>
      <rect class="cls-1" x="1133.8" y="161.3" width="73.8" height="11.5"/>
      <rect class="cls-4" x="19.6" y="284.8" width="1131.1" height="11.5"/>
      <g>
        <rect class="cls-4" x="821.8" y="84.1" width="85.1" height="11.5"/>
        <rect class="cls-11" x="821.8" y="237" width="85.1" height="11.5"/>
        <rect class="cls-5" x="821.8" y="160.2" width="49.3" height="11.5"/>
      </g>
      <polygon class="cls-11" points="1251.3 82.2 1251.3 249.2 1341.2 249.2 1341.2 238.5 1263.8 238.5 1263.8 170.7 1296.9 170.7 1296.9 159.6 1263.8 159.6 1263.8 82.3 1251.3 82.2"/>
      <polygon class="cls-2" points="19.2 82.7 19.2 217.4 152.3 82.4 135.8 82.4 31.4 190.3 31.4 82.7 19.2 82.7"/>
      <polygon class="cls-12" points="90 163.5 81.9 171.7 143.5 248.8 155.7 248.8 90 163.5"/>
      <g>
        <path class="cls-4" d="M1192.6,284.3h3.1v39.4h24.8v2.9h-28v-42.3h0Z"/>
        <path class="cls-4" d="M1261.7,284h3l19.7,42.6h-3.4l-5.4-11.8h-24.9l-5.4,11.8h-3.3l19.7-42.6h0ZM1274.3,311.9l-11.1-24.5-11.2,24.5h22.3,0Z"/>
        <path class="cls-4" d="M1309.1,284.3h17.5c4.8,0,8.6,1.4,11,3.7,1.8,1.8,2.7,4,2.7,6.6h0c0,5.9-3.7,8.8-7.2,10.1,5.1,1.3,9.5,4.2,9.5,10.1h0c0,7.2-6,11.7-15.2,11.7h-18.4v-42.3h0ZM1326.2,303.8c6.3,0,10.9-3.1,10.9-8.7h0c0-4.8-3.8-7.9-10.6-7.9h-14.3v16.6h14ZM1327.6,323.7c7.2,0,11.8-3.3,11.8-8.6h0c0-5.3-4.5-8.3-12.9-8.3h-14.3v17h15.4Z"/>
      </g>
      <rect class="cls-2" x="18.1" y="599" width="349.9" height="257.7"/>
      <rect class="cls-12" x="405.7" y="599" width="349.9" height="257.7"/>
      <rect class="cls-13" x="802.7" y="599" width="349.9" height="257.7"/>
      <rect class="cls-14" x="1190.2" y="599" width="349.9" height="257.7"/>
      <g class="cls-6">
        <text class="cls-7" transform="translate(48.3 929.9)"><tspan x="0" y="0">#3953A4</tspan></text>
      </g>
      <g class="cls-6">
        <text class="cls-7" transform="translate(462.1 929.9)"><tspan x="0" y="0">#6ABD45</tspan></text>
      </g>
      <g class="cls-6">
        <text class="cls-7" transform="translate(899 929.9)"><tspan x="0" y="0">#F37121</tspan></text>
      </g>
      <g class="cls-6">
        <text class="cls-7" transform="translate(1275.2 929.9)"><tspan x="0" y="0">#6FCCDD</tspan></text>
      </g>
      <rect class="cls-4" x="18.1" y="980.9" width="349.9" height="257.7"/>
      <rect class="cls-10" x="405.7" y="980.9" width="349.9" height="257.7"/>
      <rect class="cls-11" x="802.7" y="980.9" width="349.9" height="257.7"/>
      <rect class="cls-8" x="1190.2" y="980.9" width="349.9" height="257.7"/>
      <g class="cls-6">
        <text class="cls-7" transform="translate(48.3 1311.8)"><tspan x="0" y="0">#ED1D7E</tspan></text>
      </g>
      <g class="cls-6">
        <text class="cls-7" transform="translate(462.1 1311.8)"><tspan x="0" y="0">#B9529F</tspan></text>
      </g>
      <g class="cls-6">
        <text class="cls-7" transform="translate(899 1311.8)"><tspan x="0" y="0">#ED2024</tspan></text>
      </g>
      <g class="cls-6">
        <text class="cls-7" transform="translate(1275.2 1311.8)"><tspan x="0" y="0">#F7EC13</tspan></text>
      </g>
    </g>
  </g>
</svg>