<svg width="386" height="432" viewBox="0 0 386 432" fill="none" xmlns="http://www.w3.org/2000/svg">
<path d="M110.916 115.747L110.941 109.632L111.441 109.634L111.45 107.442L113.344 108.546L113.596 108.114L118.879 111.193L118.627 111.625L123.911 114.705L124.162 114.273L129.446 117.353L129.194 117.785L134.477 120.864L134.729 120.432L140.013 123.512L139.761 123.944L145.044 127.023L145.296 126.591L150.579 129.671L150.328 130.103L155.611 133.183L155.863 132.751L161.146 135.83L160.894 136.262L166.178 139.342L166.43 138.91L171.713 141.989L171.461 142.421L176.745 145.501L176.996 145.069L182.28 148.148L182.028 148.58L187.311 151.66L187.563 151.228L192.847 154.308L192.595 154.74L197.878 157.819L198.13 157.387L203.413 160.467L203.162 160.899L208.445 163.978L208.697 163.546L213.98 166.626L213.728 167.058L219.012 170.138L219.264 169.706L224.547 172.785L224.295 173.217L229.579 176.297L229.83 175.865L235.114 178.944L234.862 179.376L240.145 182.456L240.397 182.024L245.681 185.103L245.429 185.535L250.712 188.615L250.964 188.183L256.247 191.263L255.996 191.695L261.279 194.774L261.531 194.342L266.814 197.422L266.562 197.854L271.846 200.933L272.098 200.501L277.381 203.581L277.129 204.013L282.413 207.092L282.664 206.661L287.948 209.74L287.696 210.172L292.979 213.252L293.231 212.82L298.515 215.899L298.263 216.331L300.156 217.435L298.254 218.523L298.502 218.957L293.193 221.993L292.945 221.559L287.636 224.594L287.885 225.028L282.576 228.064L282.328 227.63L277.019 230.666L277.267 231.1L271.958 234.136L271.71 233.702L266.402 236.737L266.65 237.172L261.341 240.207L261.093 239.773L255.784 242.809L256.032 243.243L250.724 246.279L250.475 245.845L245.167 248.881L245.415 249.315L240.106 252.35L239.858 251.916L234.549 254.952L234.798 255.386L229.489 258.422L229.241 257.988L223.932 261.024L224.18 261.458L218.871 264.493L218.623 264.059L213.315 267.095L213.563 267.529L208.254 270.565L208.006 270.131L202.697 273.167L202.945 273.601L197.637 276.637L197.389 276.202L192.08 279.238L192.328 279.672L187.019 282.708L186.771 282.274L181.462 285.31L181.711 285.744L176.402 288.78L176.154 288.346L170.845 291.381L171.093 291.815L165.785 294.851L165.536 294.417L160.228 297.453L160.476 297.887L155.167 300.923L154.919 300.489L149.61 303.524L149.858 303.958L144.55 306.994L144.302 306.56L138.993 309.596L139.241 310.03L133.932 313.066L133.684 312.632L128.375 315.667L128.624 316.101L123.315 319.137L123.067 318.703L117.758 321.739L118.006 322.173L112.698 325.209L112.449 324.775L110.547 325.863L110.556 323.671L110.056 323.669L110.081 317.554L110.581 317.556L110.606 311.44L110.106 311.438L110.132 305.323L110.632 305.325L110.657 299.21L110.157 299.208L110.182 293.092L110.682 293.094L110.708 286.979L110.208 286.977L110.233 280.862L110.733 280.864L110.758 274.748L110.258 274.746L110.284 268.631L110.784 268.633L110.809 262.518L110.309 262.516L110.334 256.4L110.834 256.402L110.859 250.287L110.359 250.285L110.385 244.17L110.885 244.172L110.91 238.056L110.41 238.054L110.435 231.939L110.935 231.941L110.961 225.826L110.461 225.823L110.486 219.708L110.986 219.71L111.011 213.595L110.511 213.593L110.537 207.477L111.036 207.479L111.062 201.364L110.562 201.362L110.587 195.247L111.087 195.249L111.112 189.133L110.612 189.131L110.638 183.016L111.138 183.018L111.163 176.903L110.663 176.901L110.688 170.785L111.188 170.787L111.214 164.672L110.714 164.67L110.739 158.555L111.239 158.557L111.264 152.441L110.764 152.439L110.789 146.324L111.289 146.326L111.315 140.211L110.815 140.209L110.84 134.093L111.34 134.095L111.365 127.98L110.865 127.978L110.891 121.863L111.391 121.865L111.416 115.749L110.916 115.747Z" stroke="#BCB9B9" stroke-dasharray="6 6"/>
<path d="M308.519 378.463L308.495 384.4L307.995 384.398L307.986 386.501L306.169 385.442L305.918 385.874L300.788 382.884L301.04 382.452L295.91 379.462L295.658 379.894L290.528 376.904L290.78 376.472L285.65 373.482L285.399 373.914L280.269 370.924L280.521 370.492L275.391 367.502L275.139 367.934L270.009 364.944L270.261 364.512L265.131 361.522L264.88 361.954L259.75 358.964L260.002 358.532L254.872 355.542L254.62 355.974L249.49 352.984L249.742 352.552L244.612 349.562L244.361 349.994L239.231 347.004L239.483 346.572L234.353 343.582L234.101 344.014L228.971 341.024L229.223 340.592L224.093 337.602L223.842 338.034L218.712 335.044L218.964 334.612L213.834 331.622L213.582 332.054L208.452 329.064L208.704 328.632L203.574 325.642L203.323 326.074L198.193 323.084L198.445 322.652L193.315 319.662L193.063 320.093L187.933 317.103L188.185 316.671L183.055 313.681L182.804 314.113L177.674 311.123L177.926 310.691L176.109 309.633L177.934 308.589L177.686 308.155L182.84 305.207L183.089 305.641L188.243 302.694L187.995 302.26L193.149 299.312L193.397 299.746L198.551 296.799L198.303 296.365L203.458 293.417L203.706 293.851L208.86 290.904L208.612 290.47L213.766 287.522L214.014 287.956L219.169 285.009L218.921 284.575L224.075 281.627L224.323 282.061L229.477 279.114L229.229 278.68L234.384 275.732L234.632 276.166L239.786 273.219L239.538 272.785L244.692 269.837L244.94 270.271L250.095 267.324L249.846 266.89L255.001 263.942L255.249 264.376L260.403 261.429L260.155 260.995L265.309 258.047L265.558 258.481L270.712 255.534L270.464 255.1L275.618 252.152L275.866 252.586L281.021 249.639L280.772 249.205L285.927 246.257L286.175 246.691L291.329 243.744L291.081 243.31L296.235 240.362L296.483 240.797L301.638 237.849L301.39 237.415L306.544 234.468L306.792 234.902L308.617 233.858L308.609 235.96L309.109 235.963L309.084 241.9L308.584 241.898L308.56 247.835L309.06 247.838L309.035 253.775L308.535 253.773L308.511 259.71L309.011 259.713L308.986 265.65L308.486 265.648L308.461 271.586L308.961 271.588L308.937 277.525L308.437 277.523L308.412 283.461L308.912 283.463L308.888 289.4L308.388 289.398L308.363 295.336L308.863 295.338L308.839 301.275L308.339 301.273L308.314 307.211L308.814 307.213L308.79 313.15L308.29 313.148L308.265 319.086L308.765 319.088L308.74 325.025L308.24 325.023L308.216 330.961L308.716 330.963L308.691 336.9L308.191 336.898L308.167 342.836L308.667 342.838L308.642 348.775L308.142 348.773L308.118 354.711L308.618 354.713L308.593 360.65L308.093 360.648L308.068 366.586L308.568 366.588L308.544 372.525L308.044 372.523L308.019 378.461L308.519 378.463Z" stroke="#BCB9B9" stroke-dasharray="6 6"/>
<path d="M308.519 190.13L308.495 196.067L307.995 196.065L307.986 198.168L306.169 197.109L305.918 197.541L300.788 194.551L301.04 194.119L295.91 191.129L295.658 191.561L290.528 188.571L290.78 188.139L285.65 185.149L285.399 185.581L280.269 182.591L280.521 182.159L275.391 179.169L275.139 179.601L270.009 176.611L270.261 176.179L265.131 173.189L264.88 173.621L259.75 170.631L260.002 170.199L254.872 167.209L254.62 167.641L249.49 164.651L249.742 164.219L244.612 161.229L244.361 161.661L239.231 158.671L239.483 158.239L234.353 155.249L234.101 155.681L228.971 152.691L229.223 152.259L224.093 149.269L223.842 149.701L218.712 146.711L218.964 146.279L213.834 143.289L213.582 143.721L208.452 140.731L208.704 140.299L203.574 137.309L203.323 137.741L198.193 134.75L198.445 134.319L193.315 131.328L193.063 131.76L187.933 128.77L188.185 128.338L183.055 125.348L182.804 125.78L177.674 122.79L177.926 122.358L176.109 121.3L177.934 120.256L177.686 119.822L182.84 116.874L183.089 117.308L188.243 114.361L187.995 113.927L193.149 110.979L193.397 111.413L198.551 108.466L198.303 108.032L203.458 105.084L203.706 105.518L208.86 102.571L208.612 102.137L213.766 99.1892L214.014 99.6233L219.169 96.6758L218.921 96.2418L224.075 93.2943L224.323 93.7283L229.477 90.7808L229.229 90.3468L234.384 87.3993L234.632 87.8333L239.786 84.8859L239.538 84.4518L244.692 81.5043L244.94 81.9384L250.095 78.9909L249.846 78.5568L255.001 75.6094L255.249 76.0434L260.403 73.0959L260.155 72.6619L265.309 69.7144L265.558 70.1484L270.712 67.2009L270.464 66.7669L275.618 63.8194L275.866 64.2535L281.021 61.306L280.772 60.8719L285.927 57.9244L286.175 58.3585L291.329 55.411L291.081 54.977L296.235 52.0295L296.483 52.4635L301.638 49.516L301.39 49.082L306.544 46.1345L306.792 46.5685L308.617 45.5247L308.609 47.6274L309.109 47.6295L309.084 53.567L308.584 53.565L308.56 59.5025L309.06 59.5045L309.035 65.442L308.535 65.44L308.511 71.3775L309.011 71.3796L308.986 77.3171L308.486 77.315L308.461 83.2525L308.961 83.2546L308.937 89.1921L308.437 89.19L308.412 95.1275L308.912 95.1296L308.888 101.067L308.388 101.065L308.363 107.003L308.863 107.005L308.839 112.942L308.339 112.94L308.314 118.878L308.814 118.88L308.79 124.817L308.29 124.815L308.265 130.753L308.765 130.755L308.74 136.692L308.24 136.69L308.216 142.628L308.716 142.63L308.691 148.567L308.191 148.565L308.167 154.503L308.667 154.505L308.642 160.442L308.142 160.44L308.118 166.378L308.618 166.38L308.593 172.317L308.093 172.315L308.068 178.253L308.568 178.255L308.544 184.192L308.044 184.19L308.019 190.128L308.519 190.13Z" stroke="#BCB9B9" stroke-dasharray="6 6"/>
<path d="M279.22 293.534L279.195 299.588L278.695 299.586L278.686 301.746L276.819 300.658L276.568 301.09L271.338 298.042L271.59 297.61L266.36 294.561L266.108 294.993L260.878 291.945L261.13 291.513L255.9 288.465L255.648 288.897L250.418 285.848L250.67 285.416L245.44 282.368L245.188 282.8L239.958 279.751L240.21 279.319L234.98 276.271L234.728 276.703L229.499 273.655L229.75 273.223L224.52 270.174L224.269 270.606L219.039 267.558L219.291 267.126L214.061 264.077L213.809 264.509L208.579 261.461L208.831 261.029L203.601 257.981L203.349 258.413L198.119 255.364L198.371 254.932L193.141 251.884L192.889 252.316L187.659 249.267L187.911 248.835L182.681 245.787L182.43 246.219L177.2 243.171L177.451 242.739L172.222 239.69L171.97 240.122L166.74 237.074L166.992 236.642L161.762 233.593L161.51 234.025L156.28 230.977L156.532 230.545L151.302 227.497L151.05 227.929L145.82 224.88L146.072 224.448L140.842 221.4L140.59 221.832L135.361 218.783L135.612 218.351L133.746 217.263L135.621 216.191L135.373 215.757L140.628 212.752L140.876 213.186L146.131 210.181L145.883 209.747L151.138 206.742L151.386 207.176L156.641 204.171L156.393 203.737L161.648 200.732L161.896 201.166L167.151 198.161L166.903 197.727L172.158 194.722L172.406 195.156L177.661 192.151L177.412 191.717L182.667 188.712L182.916 189.146L188.171 186.141L187.922 185.707L193.177 182.701L193.426 183.136L198.68 180.131L198.432 179.696L203.687 176.691L203.935 177.125L209.19 174.12L208.942 173.686L214.197 170.681L214.445 171.115L219.7 168.11L219.452 167.676L224.707 164.671L224.955 165.105L230.21 162.1L229.962 161.666L235.217 158.661L235.465 159.095L240.72 156.09L240.472 155.656L245.727 152.651L245.975 153.085L251.23 150.08L250.982 149.646L256.236 146.641L256.485 147.075L261.74 144.07L261.491 143.636L266.746 140.631L266.995 141.065L272.249 138.06L272.001 137.626L277.256 134.621L277.504 135.055L279.38 133.983L279.371 136.143L279.871 136.145L279.846 142.199L279.346 142.197L279.321 148.25L279.821 148.252L279.796 154.306L279.296 154.304L279.271 160.357L279.771 160.359L279.746 166.412L279.246 166.41L279.221 172.464L279.721 172.466L279.696 178.519L279.196 178.517L279.171 184.571L279.671 184.573L279.646 190.626L279.146 190.624L279.121 196.677L279.621 196.679L279.596 202.733L279.096 202.731L279.071 208.784L279.571 208.786L279.546 214.84L279.046 214.838L279.021 220.891L279.521 220.893L279.496 226.947L278.996 226.944L278.971 232.998L279.471 233L279.445 239.053L278.945 239.051L278.92 245.105L279.42 245.107L279.395 251.16L278.895 251.158L278.87 257.212L279.37 257.214L279.345 263.267L278.845 263.265L278.82 269.318L279.32 269.32L279.295 275.374L278.795 275.372L278.77 281.425L279.27 281.427L279.245 287.481L278.745 287.479L278.72 293.532L279.22 293.534Z" stroke="#BCB9B9" stroke-dasharray="6 6"/>
</svg>
