<?xml version="1.0" encoding="UTF-8"?>
<svg xmlns="http://www.w3.org/2000/svg" version="1.1" viewBox="0 0 322.2 74.9">
  <defs>
    <style>
      .cls-1 {
        fill: #fff;
      }
    </style>
  </defs>
  <!-- Generator: Adobe Illustrator 28.6.0, SVG Export Plug-In . SVG Version: 1.2.0 Build 709)  -->
  <g>
    <g id="Layer_1">
      <path class="cls-1" d="M312.3,8.7h0s0,0,0,0c0-.8,0-1.7,0-2.7v-.2h-.2c-.3.1-1.5.1-2.8.1h-3.8c-.8,0-1.5,0-2.4,0h0s0,0,0,0c-.2,0-.2.3-.2.4,0,.2,0,.3.1.4h.4c1.1.2,1.1.3,1.1,2.5v7.5c0,2.2,0,2.3-1.1,2.4h-.6c0,0,0,.1,0,.1-.1.1-.1.3-.1.5,0,.2,0,.3.2.3h0s0,0,0,0c1,0,1.7,0,2.6,0s1.6,0,2.8,0h0s0,0,0,0c.1,0,.2-.3.2-.4,0-.2,0-.3-.1-.4h-.8c-1.1-.2-1.1-.3-1.1-2.5v-2.9q0-.4.5-.4h1.4c.7,0,1.3,0,1.6,0,.3,0,.5.3.6.7l.2.9h0c.2.2.6.2.8,0h0c0-.3,0-.6,0-.9,0-.4,0-.8,0-1.2s0-.9,0-1.3c0-.3,0-.6,0-.8h0s0,0,0,0c0-.1-.3-.2-.4-.2-.2,0-.3,0-.4.2l-.2.9c-.1.5-.3.6-.4.6-.2,0-.9.1-1.7.1h-1.4q-.5,0-.5-.4v-4.4q0-.7.5-.7h1.3c.9,0,1.5,0,2,.1.9.2,1.2.8,1.3,1.9h0c0,0,0,0,0,0,0,0,.2.1.3.1s.4,0,.4-.2h0ZM298.3,12.8c0-3.5-2.3-7.3-7.4-7.3s-7.6,3.2-7.6,7.5,2.6,7.2,7.6,7.2,7.4-3.2,7.4-7.4h0ZM295.9,13.4c0,4.3-2.5,5.8-4.7,5.8-4.3,0-5.4-4.4-5.4-6.9,0-4.3,2.6-5.9,4.8-5.9,3.9,0,5.3,3.8,5.3,7h0ZM278.8,48.9c0,9,6.7,17,17.8,17s17.4-7.4,17.4-17.5-5.8-17.2-17.4-17.2-17.8,7.7-17.8,17.7h0ZM283.8,47.3c0-11,6.8-14.5,12-14.5,9.6,0,13.2,8.9,13.2,17.2s-5.7,14.4-11.7,14.4c-9.9,0-13.5-9.6-13.5-17h0ZM272.8,6.5c.1,0,.2-.2.2-.4,0-.2,0-.3-.2-.4h0s0,0,0,0c-1.5,0-2.4,0-3.9,0h0s0,0,0,0c-.1,0-.2.2-.2.3,0,.2,0,.3.1.5h0s.4,0,.4,0c.4,0,.7.1.7.2,0,.3-.8,1.7-1.2,2.5v.2c-.6,1-1.2,2-1.9,3.3-.5-1-1.1-2.1-1.6-3.1-.2-.4-.4-.8-.6-1.2-.2-.3-.6-1.4-.6-1.5,0,0,0-.1.7-.2h.3s0,0,0,0c.1-.1.2-.3.1-.5,0-.1-.1-.2-.2-.3h0s0,0,0,0c-.5,0-1.3,0-2.2,0s-1.7,0-2.4,0h0s0,0,0,0c-.1,0-.2.2-.2.3,0,.2,0,.3.1.5h0s.6.2.6.2c.6,0,.8.1,1.5,1.5l2.5,4.8c.6,1.1.6,1.4.6,2.5v1.1c0,2.3,0,2.4-1.1,2.5h-.7c0,0,0,.1,0,.1-.1.1-.1.3-.1.5,0,.2,0,.3.2.3h0s0,0,0,0c1.1,0,1.9,0,2.7,0s1.6,0,2.8,0h0s0,0,0,0c.1,0,.2-.2.2-.3,0-.1,0-.3-.1-.5h0s-.9-.1-.9-.1c-1,0-1.1-.2-1.1-2.5v-1.1c0-1.6,0-1.7,1-3.3l1.3-2.3c.1-.2.2-.4.3-.6.8-1.4,1.4-2.5,2.3-2.6h.6c0-.1,0-.1,0-.1h0ZM265.5,32c-.9-.2-3.5-.8-6.4-.8-7.6,0-12.5,2.4-15.9,5.9-3.1,3.3-4.5,7.6-4.5,11.9s1.6,8.4,4.6,11.4c3.9,3.9,9.3,5.6,15.3,5.6s6.3-.6,9-1.3c.9-.2,1.9-.5,2.5-.5.2-.2.2-.5,0-.6-.9-.4-1.2-1.6-1.2-3.6v-2.8c0-2.6,0-4,2.2-4.2h.8c.3-.4.3-1.2,0-1.4-1.7,0-3.4.1-5.3.1-3,0-5.7,0-7.2-.1-.4.1-.4,1.1,0,1.3l2.2.3c3.1.3,3.3.7,3.3,4.9v2c0,1.6-.2,2.5-.5,2.9-.6.8-2.4,1.5-5.5,1.5-10.1,0-15-7.6-15-17.2s4.3-14.4,14-14.4,8.9,1.7,10.3,7.1c.3.3,1.2.3,1.4-.1-.5-3-.8-5.6-.8-7.3-.6,0-2.2-.3-3.1-.5h0ZM256.9,5.5h0c0,0,0-.1,0-.1,0-.2-.3-.2-.4-.2s-.1,0-.2,0h0s0,0,0,0c-.3.5-.4.5-1.5.5h-8.6c-.9,0-1.4,0-1.4-.5h0s0,0,0,0c0,0-.2,0-.3,0s-.2,0-.3,0h0s0,.1,0,.1c-.1.8-.5,2.2-.8,3.1h0c0,0,0,.1,0,.1.1.3.6.4.8.2h0s0,0,0,0c.2-.5.4-.9.9-1.4.5-.4,1.5-.5,2.5-.5h1.1q.5,0,.5.5v9.3c0,2.3-.1,2.4-1.1,2.4h-.8c0,0,0,0,0,0-.1,0-.2.2-.2.4,0,.1,0,.3.2.4h0s0,0,0,0c1.3,0,2,0,2.9,0s1.5,0,2.7,0h0s0,0,0,0c.2,0,.2-.3.2-.4,0-.2,0-.3-.1-.4h-.7c-1-.2-1.1-.3-1.1-2.5V7.2c0-.2,0-.4,0-.4,0,0,.3,0,.4,0h1.5c1.1,0,1.9.2,2.3.5.2.1.4.7.5,1.4h0s0,0,0,0c0,0,.2.1.4.1s.4,0,.4-.2h0s0,0,0,0c0-.6,0-2.3.3-3.1h0ZM237.9,16.5v-7.4c0-2.3,0-2.4,1.1-2.5h.6s0,0,0,0c.1,0,.2-.2.1-.4,0,0,0-.3-.2-.4h0s0,0,0,0c-1,0-1.7,0-2.6,0s-1.6,0-2.6,0h0s0,0,0,0c-.2,0-.2.3-.2.4,0,.2,0,.3.1.4h0s.6,0,.6,0c1.1,0,1.1.2,1.1,2.5v7.4c0,2.2,0,2.4-1.1,2.5h-.6c0,0,0,.1,0,.1-.1.1-.1.3-.1.5,0,.2,0,.3.2.3h0s0,0,0,0c1.1,0,1.8,0,2.6,0s1.5,0,2.6,0h0s0,0,0,0c.2,0,.2-.3.2-.4,0-.2,0-.3-.1-.4h-.6c-1.1-.2-1.1-.3-1.1-2.6h0ZM234.5,63.9c-2.2-.3-2.8-1-4.3-5.3l-6.9-20.1c-.7-2.2-1.6-4.5-2.2-6.7,0-.3-.4-.4-.7-.4-.6.7-1.4,1.6-2.6,1.9.2.8-.1,1.7-.9,3.6l-5.1,13.5c-2.1,5.6-3.5,8.9-4.4,11.2-.7,1.8-1.8,2.4-3,2.5h-1.7c-.3.4-.2,1.2.1,1.4,1.4,0,3.2-.1,4.8-.1,2.4,0,3.9,0,5.2.1.4-.2.4-1,0-1.3h-1.7c-1.2-.2-1.5-.6-1.5-1.2s.4-1.9,1.1-4.2l1.8-5.3c.4-1.1.7-1.2,1.9-1.2h7.6c1.5,0,1.7.1,2.1,1.3l2.2,6.8c.4,1.2.7,2.1.7,2.7s-.7.8-1.7.9h-1.5c-.4.4-.3,1.2.1,1.4,1.5,0,3.4-.1,5.8-.1s4,0,6.1.1c.2-.2.3-1,0-1.3h-1.4ZM221.6,50.2h-6.2c-1.4,0-1.5,0-1.1-1.2l3.2-8.7c.6-1.5,1-2.7,1.2-3h.1c.3.6.8,2,1.1,3.2l2.7,8.2c.5,1.4.4,1.6-1.1,1.6h0ZM223.6,8.6c0-.8.3-2.2,2.3-2.2s2.4,1.2,2.7,2.2h0c0,.1.2.2.3.2s.4,0,.5-.2h0c0-.9-.2-2.1-.4-2.7h0c0-.1-.1-.1-.1-.1-.1,0-.4,0-.7-.1-.5-.1-1.3-.3-2-.3-2.6,0-4.4,1.5-4.4,3.7s1.5,3.1,2.3,3.7l2,1.3c1.4.9,1.6,1.9,1.6,2.8s-.8,2.2-2.4,2.2-3-1.6-3.4-3h0c0-.1-.2-.2-.3-.2s-.3,0-.4.2h0s0,0,0,0c0,.9.3,2.5.6,3h0s0,0,0,0c.4.2,1.6.8,3.3.8,2.8,0,4.6-1.6,4.6-4s-.9-3-2.7-4.1l-1.7-1c-.6-.4-1.7-1.2-1.7-2.4h0ZM218.4,20c0,0,.1-.2.1-.3,0-.1,0-.2-.2-.2h0c-.5,0-1-.3-1.3-.6-1.4-1.2-2.6-3-4.2-5.5-.1-.2-.1-.3-.1-.3.7-.3,2.6-1.3,2.6-3.6s-1-2.6-1.8-3.1c-1-.6-2.4-.6-3.6-.6-1.9,0-3.4,0-4.7.2h0c-.1,0-.2.2-.2.4,0,.2,0,.4.2.4h0s.7.1.7.1c.7,0,.8.2.8,2.3v7.5c0,2.2,0,2.3-1.1,2.4h-.6c0,0,0,.1,0,.1-.1.1-.1.3-.1.5,0,.1,0,.2.2.3h0s0,0,0,0c.9,0,1.7,0,2.6,0s1.6,0,2.5,0h0s0,0,0,0c.2,0,.2-.3.2-.4,0-.2,0-.3-.1-.4h0s-.5,0-.5,0c-1.1-.1-1.1-.2-1.1-2.4v-2.6q0-.3.8-.3c.8,0,1.1.2,1.3.6.3.5.7,1,1,1.6.4.6.7,1.1,1,1.5,1.4,2,2.5,2.7,4.4,2.7s.8,0,1-.1h0ZM212.1,12.2c-.6.5-1.4.5-2,.5-.9,0-1.2,0-1.3,0,0,0,0-.3,0-.6v-4.9c0-.5,0-.5,1.2-.5,2.3,0,3.2,1.6,3.2,3.1s-.3,1.9-1,2.5h0ZM201.3,16.9h0c0,0,0,0,0,0,0-.2-.3-.3-.5-.3s-.2,0-.3,0h0c-.6,1.3-1.1,1.9-1.4,2-.4.2-1.1.3-2.6.3s-2.2-.2-2.4-.4c-.3-.3-.4-1-.4-2.1v-2.9q0-.4.5-.4h1.2c.7,0,1.3,0,1.6,0,.3,0,.4.3.5.7l.2.8h0c0,.2.2.2.4.2s.3,0,.4-.2h0c0-.3,0-.6,0-.9,0-.4,0-.8,0-1.2s0-.9,0-1.3c0-.3,0-.6,0-.8h0s0,0,0,0c0-.1-.2-.2-.4-.2s-.3,0-.4.2l-.2.9c0,.5-.2.5-.4.6-.2,0-.9.1-1.7.1h-1.2q-.5,0-.5-.4v-4.2q0-.7.5-.7h1.5c.9,0,1.6,0,2,.1,1,.2,1.1.8,1.4,1.7h0c0,.1,0,.2,0,.2,0,0,.2.1.3.1s.3,0,.4-.2h0s0-.4,0-.4c-.1-1.2-.2-2.2-.3-2.6h0c0-.1-.1-.1-.1-.1-.2,0-1.5,0-2.8,0h-3.9c-.8,0-1.5,0-2.5,0h0s0,0,0,0c-.2,0-.2.3-.2.4,0,.2,0,.3.1.4h.4c1.1.2,1.1.3,1.1,2.5v7.5c0,2.3-.1,2.4-1.1,2.4h-.7c0,0,0,.1,0,.1-.1.1-.1.3-.1.5,0,.2,0,.3.2.3h0s0,0,0,0c1.2,0,1.9,0,2.8,0h1.9c1.8,0,3.6,0,5.6,0h.1s0,0,0,0c.3-.6.8-2.2.9-2.9h0ZM187,6.5c.1-.1.1-.3.1-.4,0-.2,0-.3-.2-.3h0s0,0,0,0c-.7,0-1.3,0-2,0s-1.6,0-2.2,0h0s0,0,0,0c-.1,0-.2.2-.2.4,0,.2,0,.3.1.4h0s.4,0,.4,0c.7,0,.8.2.8.2,0,.1,0,.3-.2.8-.4.9-1.4,3.3-1.9,4.7-.2.4-.3.8-.6,1.3-.4.9-.9,2.1-1.3,3-1-2.3-1.9-4.5-2.8-6.9-.6-1.5-1-2.6-1-2.9,0,0,.2-.2.8-.2h.4s0,0,0,0c.1,0,.2-.2.1-.4,0-.2,0-.3-.2-.4h0s0,0,0,0c-.9,0-1.7,0-2.5,0s-1.5,0-2.2,0h0s0,0,0,0c-.1,0-.2.2-.2.4,0,.2,0,.3.2.4h0s.4,0,.4,0c.8,0,1.1.5,1.6,1.6l3.7,9c.4,1.1.8,2,1,2.8h0c0,0,0,.1,0,.1.1,0,.2,0,.4,0s.2,0,.3,0h0s0,0,0,0c.4-1.1,1.4-3.6,2.2-5.4l1.1-2.6c1-2.2,1.8-3.8,2.3-4.8.3-.4.5-.6,1-.7h.7s0,0,0,0h0ZM173.4,35.5c-3.8,3-6.3,7.7-6.3,13.3s3.1,11,7.1,13.8c3.7,2.5,8,3.4,12.5,3.4s6.8-.8,7.9-1.2c.6-.2,1.2-.4,1.8-.5.8-1,2.1-4.3,2.4-6.9-.2-.3-1-.4-1.3-.2-1.2,3-4,7.2-10.5,7.2s-14.9-5.8-14.9-16.3,6.5-15.2,14.2-15.2,9.5,3.9,10.3,7.3c.3.3,1.1.2,1.4,0-.4-3.1-.6-6.2-.7-7.4-.5,0-.8,0-1.4-.2-2.4-.7-6.2-1.2-8.9-1.2-5.2,0-9.9,1.4-13.5,4.3h0ZM167,16.5v-7.4c0-2.3,0-2.4,1.1-2.5h.6s0,0,0,0c.1,0,.2-.2.1-.4,0,0,0-.3-.2-.4h0s0,0,0,0c-1,0-1.7,0-2.6,0s-1.6,0-2.6,0h0s0,0,0,0c-.2,0-.2.3-.2.4,0,.2,0,.3.1.4h0s.6,0,.6,0c1.1,0,1.1.3,1.1,2.5v7.4c0,2.2,0,2.4-1.1,2.5h-.6c0,0,0,.1,0,.1-.1.1-.1.3-.1.5,0,.2,0,.3.2.3h0s0,0,0,0c1.1,0,1.8,0,2.6,0s1.5,0,2.6,0h0s0,0,0,0c.2,0,.2-.3.2-.4,0-.2,0-.3-.1-.4h-.6c-1.1-.2-1.1-.3-1.1-2.6h0ZM156.6,57.5v-17.8c0-5.3.1-6.2,3.1-6.4h1.3c.3-.3.2-1.2-.1-1.4-2.5,0-4.2.1-6.2.1s-3.8,0-6.3-.1c-.3.1-.4,1-.1,1.3h1.3c3,.3,3.1,1.2,3.1,6.5v17.8c0,5.3-.1,6-3.1,6.4h-1.3c-.3.4-.2,1.3.1,1.4,2.5,0,4.2-.1,6.3-.1s3.7,0,6.2.1c.3-.1.4-1.1.1-1.3h-1.3c-3-.5-3.1-1.2-3.1-6.5h0ZM159.1,6.5c.1-.1.2-.3.1-.4,0-.1,0-.3-.2-.3h0s0,0,0,0c-.7,0-1.2,0-2.1,0s-1.4,0-2.5,0h0s0,0,0,0c-.1,0-.2.2-.2.3,0,.2,0,.4.1.5h0s.4,0,.4,0c.7,0,1.1.2,1.2.3.2.4.4,1.9.4,4.2v4.5c0,.2,0,.4,0,.6-.7-.7-1.5-1.6-2.4-2.6l-2.9-3.3c-2.1-2.3-3.2-3.8-3.5-4.5h0c0-.1-.1,0-.1,0-.2,0-.6,0-.9,0s-1.5,0-2.3,0h0s0,0,0,0c-.1,0-.2.2-.2.3,0,.2,0,.4.1.5h0s.4,0,.4,0c.6,0,1,.2,1.2.4.4.4.4.8.4,1.4v6.2c0,1,0,3.4-.3,4,0,.1-.2.2-.8.3h-.6c0,0,0,.1,0,.1,0,0-.1.2-.1.4,0,.2,0,.3.2.4h0s0,0,0,0c.7,0,1.3,0,2.2,0s1.4,0,2.4,0h0s0,0,0,0c0,0,.2-.2.2-.3,0-.2,0-.3-.1-.4h0c0,0-.7-.1-.7-.1-.5,0-.8-.2-.9-.3-.2-.4-.4-1.9-.4-4.2v-4.5c0-.4,0-.8,0-1.1.3.4.9,1,1.4,1.6.3.4.7.8.9,1l4.8,5.5c1.6,1.8,2.4,2.7,2.7,3.1h0c0,0,0,0,0,0,.3,0,.5-.1.5-.3h0s0,0,0,0c0-.2,0-1.1,0-3.6v-5.3c0-1.1,0-3.3.3-3.9,0,0,.3-.2,1-.4h.3s0,0,0,0h0ZM140.4,6.5c0-.1.1-.3.1-.4,0-.1,0-.2-.2-.3h0s0,0,0,0c-.7,0-1.3,0-2.2,0s-1.6,0-2.4,0h0s0,0,0,0c0,0-.2.2-.2.3,0,.2,0,.3.1.4h0c0,0,.6,0,.6,0,.5,0,.8.2.9.4.2.4.4,1.9.4,4.2v2.4c0,2.5-.7,5.4-4,5.4s-4.1-1.7-4.1-5.4v-4.5c0-2.2,0-2.4,1.1-2.5h.5s0,0,0,0c.1,0,.2-.2.1-.4,0-.1,0-.3-.2-.4h0s0,0,0,0c-1,0-1.7,0-2.6,0s-1.6,0-2.6,0h0s0,0,0,0c-.1,0-.2.2-.2.4,0,.2,0,.3.1.4h0s.6,0,.6,0c1,0,1.1.3,1.1,2.5v4.9c0,2.5.5,4.1,1.7,5,.9.8,2.3,1.2,4,1.2s3.2-.6,4.1-1.6c1-1.1,1.5-2.7,1.5-5.1v-2.4c0-1.1,0-3.5.3-4.2,0-.2.5-.4.9-.4h.6s0,0,0,0h0ZM116.5,33.2c.3-.2.2-1.1-.1-1.3-2.2,0-3.9.1-5.8.1s-3.9,0-6.3-.1c-.3.1-.4,1,0,1.3h1.3c2.6.3,3,1.2,3,6.4v18c0,5.3-.1,5.8-2.9,6.3h-.8c-.3.4-.2,1.3,0,1.4,2,0,3.7-.1,5.8-.1s3.7,0,6.4.1c.3-.1.4-1.1,0-1.3h-1.5c-2.8-.5-3.1-1.2-3.1-6.4v-7.1c0-1.5,0-1.6,2.5-1.6h14.3c2.4,0,2.5.1,2.5,1.6v7.1c0,5.3,0,5.8-3.1,6.3h-1c-.3.4-.2,1.3,0,1.4,2.2,0,4-.1,6.1-.1s3.7,0,6.1.1c.3-.1.4-1.1.1-1.3h-1.2c-2.9-.5-3-1.2-3-6.4v-18c0-5.3,0-6,3-6.3h1.1c.3-.3.2-1.2-.1-1.4-2.3,0-4,.1-5.9.1s-3.8,0-6.1-.1c-.3.1-.4,1,0,1.3h1c3,.4,3.1,1.2,3.1,6.4v5.8c0,1.6-.1,1.6-2.5,1.6h-14.3c-2.4,0-2.5,0-2.5-1.6v-5.8c0-5.3,0-6,3-6.3h1ZM114.5,16.9h0c0,0,0,0,0,0,0-.2-.3-.3-.5-.3s-.2,0-.3,0h0c-.6,1.3-1.1,1.9-1.4,2-.4.2-1.1.3-2.6.3s-2.2-.2-2.4-.4c-.3-.3-.4-1-.4-2.1v-2.9q0-.4.5-.4h1.2c.7,0,1.3,0,1.6,0,.3,0,.4.3.5.7l.2.8h0c0,.2.2.2.4.2s.3,0,.4-.2h0c0-.3,0-.6,0-.9,0-.4,0-.8,0-1.2s0-.9,0-1.3c0-.3,0-.6,0-.8h0s0,0,0,0c0-.1-.2-.2-.4-.2s-.3,0-.4.2l-.2.9c0,.5-.2.5-.4.6-.2,0-.8.1-1.7.1h-1.2q-.5,0-.5-.4v-4.2q0-.7.5-.7h1.5c.9,0,1.6,0,2,.1,1,.2,1.1.8,1.4,1.7h0c0,.1,0,.2,0,.2,0,0,.2.1.3.1s.3,0,.4-.2h0s0-.4,0-.4c-.1-1.2-.2-2.2-.3-2.6h0c0-.1-.1-.1-.1-.1-.2,0-1.5,0-2.8,0h-3.9c-.8,0-1.5,0-2.5,0h0s0,0,0,0c-.2,0-.2.3-.2.4,0,.2,0,.3.1.4h.4c1.1.2,1.1.3,1.1,2.5v7.5c0,2.3-.1,2.4-1.1,2.4h-.7c0,0,0,.1,0,.1-.1.1-.1.3-.1.5,0,.2,0,.3.2.3h0s0,0,0,0c1.2,0,1.9,0,2.8,0h1.9c1.8,0,3.6,0,5.6,0h.1s0,0,0,0c.3-.6.8-2.2,1-2.9h0ZM97,16.6v-7.5c0-2.2,0-2.4,1.1-2.5h.4s0,0,0,0c.1,0,.2-.2.1-.4,0,0,0-.3-.2-.4h0s0,0,0,0c-1,0-1.7,0-2.5,0s-1.6,0-2.5,0h0s0,0,0,0c-.2,0-.2.3-.2.4,0,.2,0,.3.1.4h.5c1.1.2,1.1.3,1.1,2.5v2.4q0,.5-.9.5h-6q-.9,0-.9-.5v-2.4c0-2.2,0-2.4,1.1-2.5h.4s0,0,0,0c.1,0,.2-.2.1-.4,0,0,0-.3-.2-.4h0s0,0,0,0c-.9,0-1.6,0-2.4,0s-1,0-1.5,0c-.3,0-.7,0-1.1,0h0s0,0,0,0c-.2,0-.2.3-.2.4,0,.2,0,.3.1.4h0s.6,0,.6,0c.9,0,1.1.3,1.1,2.5v7.5c0,2.2,0,2.3-1.1,2.4h-.4c0,0,0,.1,0,.1-.1.1-.1.3-.1.5,0,.2,0,.3.2.3h0s0,0,0,0c.3,0,.6,0,.8,0,.5,0,1,0,1.6,0s1.4,0,2.6,0h0s0,0,0,0c.1,0,.2-.3.2-.4,0-.2,0-.3-.1-.4h-.7c-1-.2-1.1-.3-1.1-2.5v-2.9q0-.5.9-.5h6q.9,0,.9.5v2.9c0,2.2,0,2.3-1.1,2.4h-.4c0,0,0,.1,0,.1-.1.1-.1.3-.1.5,0,.2,0,.3.2.3h0s0,0,0,0c1,0,1.7,0,2.5,0s1.5,0,2.5,0h0s0,0,0,0c.2,0,.2-.3.2-.4,0-.2,0-.3-.1-.4h-.6c-1.1-.2-1.1-.3-1.1-2.5h0ZM79.9,5.5h0c0,0,0-.1,0-.1,0-.2-.3-.2-.4-.2s-.1,0-.2,0h0s0,0,0,0c-.3.5-.4.5-1.5.5h-8.6c-.9,0-1.4,0-1.4-.5h0s0,0,0,0c0,0-.2,0-.3,0s-.2,0-.3,0h0s0,.1,0,.1c-.1.8-.5,2.1-.8,3.1h0c0,0,0,.1,0,.1.1.3.6.4.8.2h0s0,0,0,0c.2-.5.4-.9.9-1.4.5-.4,1.5-.5,2.5-.5h1.1q.5,0,.5.5v9.3c0,2.3-.1,2.4-1.1,2.4h-.8c0,0,0,0,0,0-.1,0-.2.2-.2.4,0,.1,0,.3.2.4h0s0,0,0,0c1.3,0,2,0,2.9,0s1.5,0,2.7,0h0s0,0,0,0c.1,0,.2-.3.2-.4,0-.2,0-.3-.1-.4h-.7c-1-.2-1.1-.3-1.1-2.5V7.2c0-.2,0-.4,0-.4,0,0,.3,0,.4,0h1.5c1.1,0,1.9.2,2.3.5.2.1.4.7.5,1.4h0s0,0,0,0c0,0,.2.1.4.1s.4,0,.4-.2h0s0,0,0,0c0-.6,0-2.3.3-3.1h0ZM65.7,48.8c0,6.5,3.1,11,7.1,13.8,3.7,2.5,8,3.4,12.5,3.4s6.8-.8,7.9-1.2c.6-.2,1.2-.4,1.8-.5.8-1,2.1-4.3,2.4-6.9-.2-.3-1-.4-1.3-.2-1.2,3-4,7.2-10.5,7.2s-14.9-5.8-14.9-16.3,6.5-15.2,14.2-15.2,9.5,3.9,10.3,7.3c.3.3,1.1.2,1.4,0-.4-3.1-.7-6.2-.7-7.4-.5,0-.8,0-1.4-.2-2.4-.7-6.2-1.2-8.9-1.2-5.2,0-9.9,1.4-13.5,4.3-3.8,3-6.3,7.7-6.3,13.3h0ZM52.7,40.4V5.5C24.7,2.8,3.5,5.5,3.5,5.5c0,0,0,34.8,0,34.9,2.2,23.6,24.4,26.4,24.6,26.4,4-.7,22.5-4.4,24.6-26.4h0ZM51.5,40.2c-2,21-19.6,24.6-23.3,25.3-.2,0-21.2-2.6-23.3-25.3,0,0,0-33.5,0-33.5,0,0,20.1-2.6,46.7,0v33.5h0ZM44.3,52.6c.8-1.1,1.2-2.3,1.5-3.6-.5.6-1.1,1.1-1.8,1.4-.5,1.5-.3,3,.3,2.3h0ZM45.1,49.2c.6-.5.9-1.3,1.6-1.5-.5-.5-1.1.5-1.4.2.5-.8.8-1.4.9-2.4,0-.5.6-1,.8-1.3-.6,0-2.2,1-2.5,1.6-1.1,1.4-1,2.7-5.5,4.7-.2,0,.8-.8,1.1-1.6.1-.4.7-2.3.3-3.3-.9.9-.7,1.2-1,1.9-.7,1.8-1,2-2.7,3.1-.2.2-1.5,2.1-3.2,2.2.2,0,0-.5.6-.8,1.9-1.2,1.2-3.9,3.6-4.3-1.2-.4-2,.7-2.3.6,1-1.4.1-2.5.3-3.6-.3.2-.7.6-.7.9-.2,2-1.1,2.3-1.2,3.2.2,1.4-.9,2.5-1.8,3.5-.2-.8,0-1.5,1.1-2.2.6-.4,0-1.5,0-1.5-.2,1.2-.9,1.6-1.4,1.7-.4,0,1.3-1.7,1.1-3.3,0-.7-.3-.4-.4-1.2-1.5,1.6-.4,2.6-1.9,4.5-.7.9-1,2.4-1.1,2.5,0-2.3,0-1.6,1.1-3.5.8-1.5,0-3-.2-3.9-1.9,1.3-1.7,3.7-1.8,3.2,0-.5-.3-1.5,0-2.3.4-1.4-.5-3.5-.5-3.5-2.6,4.1-.4,8.8-.6,8.8-1.1-1.8-2-1.8-2.2-3.2-.1-.7-1.5-4.8-3.9-4.8,1.2,1.1.9,1.2,1,3-.8,4.4,5.3,4.8,4.9,7.1-.8-1.3-2.1-1.9-4.1-3-.9-.7-1.8-1-1.9-2,.1-.8.1-.6,0-1.6,0-.7-.8-.3-1.3-1.8-1.1,1-.7,2.1-.6,2.8,0,.2.2.9,0,1.3-.4-.3-.7-.8-1.1-1.4-.8-1-.8-2.2-1.2-3.1-.2-.4-.4-.9-.6-.9h0c-.2,1.6,0,3,.6,4.2,0,0-.2.3-.4.4-.7-.2-1.7-.8-2.1-1.9-.9.7-.2,1.6-.3,1.6-1.9-1,0-4.8-2.7-4.7.7.7.2,1.7.2,2.6,0,1.4,1.8,2.5,1.8,2.5-2-.7-2.4.3-2.4.3,0,0,3,1.3,7.7,1.8.6,0,1.5.8,1.3.8-.6,0-1.8-.8-3.5.7,1,0,1.7,1.7,3.4.7,4.3-1.2,5.8.9,6.5,1.5-.1.3-3.3-2-5.8-.5-1.3.8-3.4,0-5.1-1.2.7,1.7,3.5,3.6,4.5,3.6,1.2,0,2.6-1.5,4.3-1.4,2.7.1,3.1,2.5,2.8,2.3,0,0-2.1-3.5-4.8.2,1.3-.6,3-.4,4.5.3.2,0-.4.7-.8,1.2-.3.3-1.4,2-2.6.3-.2-.2-.8-1.8-4.6-1.5,1.4.7,3,2.4,3.8,3.1,2,2,5-2.4,5.2-1.9,0,1,.5,1.5.8,2,.7,1.3-.9,1.1-1.7.8,0,0,1.6,2.5,2.9,1.1,1.5-1.5-1.9-2.7-.8-3.9.6-.7,2.7,1.5,3.7,1.5,2.6.3,2.5-2.2,3.8-2.1-1.3-1.3-2.7-.6-3-.3-.9,1-1.9.3-2.6-.2-.4-.5-1-.6-1.6-.4-.3,0,.5-1,1.6-.8,2.4.5,4.8-.4,5.4-.7,1-.5,1.5-1.5,2.6-2.5-.3,0-2.3,1.2-3,1.5-1.9,1-3.1-.3-3.3-.3-.4,0-.3-.3.3-.5,2-.4,3.3-2.2,5.2-2.9,2.1-.9,4.7-.3,6.5-2h0ZM41.2,46.6c0,.4,0,.7-.2,1.2,0,0,.5.2.7.4.3-.3.6-.4.9-.8,0,0-1.3-1.1-1.3-1.1,0,.1,0,.1,0,.3h0ZM41.4,48.5s-.5-.4-.5-.3c0,.2-.2.5-.3.7-.1.3.3,0,.8-.4h0ZM47.1,43.5c-.1-4.5-2.9-9.5-2.1-8.6,1.9,2.3,2.5,7.4,3.8,11.7,0,0,.8.4.7-5.1,0-1.1-.5-2.6-1-3.6-1.1-2.1-3.3-5.5-3.3-5.5.5-.4,1.8,2.5,3,3.7.7.8,2.8,1.5,2.9,1.4-1.6-3.2-5.6-6.2-5.2-6.5,2.9,2.7,3.8,2.9,4,2.7l-2.6-2.6c-.7-1-1.7-1.8-1.6-1.7,1.2.3-.6-1-2-1.4-.2,0-.6,0-.7-.2,0-.2.3-.1.6-.2.2,0,.4-.2.4-.5-.5.1-1.1,0-1.5-.2-.9-.4-2.6-.9-3.4-.6-.4.2-.5.2-1,.5-.2,0-.8-.5-1.6.5-.3.3-.6.7-.6.9,0,.7,0,0,.2.7,0,.3-.2.8-1.5,1.2-.5.2-.4.6-.4.6.2-.1.6-.4,1.2-.1,1.1.5,1.3-.3,2-.9,0,0-.2.7,0,.8.9.2.6.8.5.9-1.1,1-.6,1.3-1,1.9-.4.6-.9.8-1.8.8-1.2,0,1.5-1.8-1.1-2.5.4.7.6,1.2-.3,1.7-.6.3-.3,2-1.7,1.2,0,0-.1,1.2-.3,1.3,2,1.7.9,2.7,1,5.2.6,1.6,0,2.3-.2,2.4,0,1.1.2,1.7.9,2.5.5.6,0,1.6.5,2.3.5-1.6.9-.9,1.1-3.2.2-.4.9-1,1.4-1.1,0,1.4.5,2.6.4,3.1,0,0,1.1-.2,1.5,0,.3,0,.5.5.5.7-.4.2-.4.1-1,.6-1,.7-1.5,2.3-1.5,2.3,0,0,2.4-1.9,2.6-2.3.1-.3.3-.7.4-1.1,0,0-1.2-.8-1.6-1.4-1.1-2.1,1.7,1.2,1.7.9.2-.7.7-1.4.7-1.4-.2-.2-.6-.3-1.3-1.5-1.5-2.6,1.7,1.1,1.7,1.1.9-.5.9.2,1,.9,0,0,1.5,1.1,1.5,1.2.4-.4.7-.9.9-1.3,0,0-2.6-2.4-3.1-3.2-3.6-6.2,2.9,2.8,3.2,2.5.2-.5.2-1.2.2-2.1,0,0-1.2-.9-2-2.2-3.1-5,2,1.5,2,1.5,0-1.1-.9-5.8-.3-4.4.3.7,1.3,3.7,1.1,6.8.3-.6,1.7-1.1,2.3-1.3h0ZM49.1,13.5c0,.2,0,.3,0,.4,0,0,0-.2,0-.4,0,0,0-1.7-1.9-1.7s-1.3.7-3.1,0v2.9c.7.2,2.8-.9,3.6-1.3.6-.3,1.4,0,1.4.2h0ZM44,17.6v2.9s1.6,0,3.4-1.2c.5-.3,1.3-.2,1.7.1h0s-.2-1.9-1.8-1.6c-2.9.4-3.3-.2-3.3-.2h0ZM33.1,22.2c1.5,0,7.5,1.6,10.4,1.4v-15s-4.2.6-7.9-.8c-3-1.1-7.1.8-7.1.8,0,.5,0,14.7,0,14.7,0,0,1.5-1.2,4.6-1.2h0ZM29.9,17.2c.1,0,.6,0,.7,0,0,.3,0,2.5,0,2.8,0,.2.2.3.4.2,0,0,.2,0,0,.1-.2.2-.5.5-.6.7-.3-.2-.5-.4-.5-.6,0-.4,0-2.9,0-3.2h0ZM30.7,14c.4-.2,1.4-.4,1.7-.3.2,0,.3,0,.3,0,0-.1.2,0,.2,0s0,1.2,0,1.3c0,.1-.2,0-.2,0,0-.2,0-.2-.1-.4-.4-.6-1.5-.6-2,0-.2.2-.3.7,0,.7.2,0,1,0,1.2,0,.2,0,.9-.1.9-.2,0,0,.2-.1.2,0s0,.5,0,.7c0,.1,0,0-.2,0,0,0-.7-.1-.9-.1-.4,0-1.1-.2-1.3-.1-.2,0,0,.4.1.6.5.7,1.5.7,1.9.2.1-.2.1-.3.1-.4s.2-.1.2,0,0,1,0,1.1-.2.1-.2,0c0-.2-.1-.2-.3-.1-.6.2-1.3.2-1.8,0-.5-.3-.9-.4-.9-1.4,0-.6.6-1.2,1-1.4h0ZM33.8,9.4c-.3,0-.4.3-.5.6,0,.3-.9,2.8-1,3-.2-.8-1.1-2.7-1.4-3.1-.2-.4-.5-.3-.7-.3-.2,0-.1-.2,0-.2.2,0,1.6.2,2,.2.1,0,.1.2,0,.2,0,0-.3.1-.3.2s.5,1.3.6,1.5c.1-.3.6-1.5.5-1.8-.1-.3-.1-.3-.3-.3-.2,0-.2-.1,0-.2.2,0,.9,0,1.1,0,.2,0,.2.1,0,.2h0ZM35.3,9.4l-.3.2h-.2l-.2-.2v-.4s.3-.3.3-.3l.4.3v.4h0ZM35.9,12.4l-.5.6h-.4c-.2-.2-.4-.4-.4-.6v-1.4s-.6-.3-.6-.3c0,.1-.3.1-.2,0l.7-.7h.2s.5.5.5.5v1.5c.2.3.4.3.7.4h0ZM38.5,10.7c-.1,0-1.2.1-1.2.1,0,0,0,1.4,0,1.5,0,.1.1.3.3.2.1-.1.2,0,.1.2,0,0-.3.6-.4.6-.2.1-.4-.3-.5-.5-.1-.4-.2-1.3-.2-2,0,0-.5-.2-.3-.3.5-.2,1-.9,1-1,0-.2.2-.1.1,0-.2.3-.1.6,0,.8,0,0,1,0,1.1,0s0,.2,0,.2h0ZM37.2,15.4c0,.5.3.9.6,1.1.3.1.7,0,.8,0,.1,0,0,0,.2-.1,0,0,.2,0,.1,0,0,0-.7.7-.9.8-.2,0-.5,0-.7-.2-.4-.5-.7-.7-.5-1.5,0-.6,1.1-1.1,1.3-1.2,0,0,.5.6.7.7,0,0-.3.2-.6.2-.2,0-.4-.2-.6-.4-.1.1-.4.3-.4.6h0ZM41.2,13.1l-.6.7c-.2-.1-.3-.3-.3-.5-.5,0-.8.4-1,.5-.2-.2-.5-.6-.5-.9,0-.3.2-.8.4-.9,0,0,0,0,0,0,0,0-.2-.1-.3-.2,0,0,0-.2,0-.3.1-.2.5-.6.9-.7.2,0,.5,0,1,.4,0,0,0,1.4,0,1.5.2.2.4.4.4.4h0ZM42.4,16.1c-.2,0-.4,0-.5,0-.2,0,0-.2,0-.2s.4,0,.5,0c0,0,.1.2,0,.2h0ZM42.4,16.5c-.2,0-.4,0-.5,0-.2,0-.1-.2,0-.2.1,0,.4,0,.4,0,0,0,.1.3,0,.2h0ZM39.3,19.3c.2-.1.7-.5.8-.7.3.2.4.4.6.6.2,0,.5-.3.6-.4.2.2.5.4.6.5.1-.1.3,0,.1.1-.1.1-.4.4-.6.5-.2,0-.5-.4-.6-.5,0,0-.2,0-.2.1,0,.2,0,1.7,0,1.9-.3,0-.5,0-.6,0,0-.2,0-1.6,0-1.8,0-.3-.4-.4-.7-.4h0ZM39.2,16.3c0-.8.5-1.4,1.4-1.7.7.2.9.9,1,1.3,0,.4-.2.8-.4,1.1-.3.2-.5.4-.8.7-.8,0-1.2-.9-1.2-1.4h0ZM36.1,18.8c.2-.3.5-.4.6-.6.3.2.3.3.5.5,0,.3,0,1.1,0,1.3,0,.2,1,.4,1,0,0-.4,0-.8,0-1,0-.2-.4-.2-.6-.2.3-.3.5-.5.6-.6.2.2.5.4.6.6,0,.4,0,1.2,0,1.4,0,.2,0,.2.2.4-.2.2-.3.2-.4.4-.2,0-.5-.3-.5-.6-.2.2-.9.4-1.1.5-.2-.2-.4-.3-.4-.6,0-.3,0-1.1,0-1.3,0-.2-.3-.2-.5-.2h0ZM35.5,16.6c-.2-.1-.6-.4-.7-.7-.3.4-.4.8-1,.9.3-.3.6-.9.6-1.5,0-.5-.3-.8-.6-.9-.2.1-.4.3-.5.3-.1,0-.2-.1,0-.2.3-.1.9-.6,1-.7.3,0,.6.3.6.5.2-.1.6-.5.7-.6.1.2.5.5.9.6-.4.6-1.2.2-1.3,0-.1.2-.2.3,0,.6.2.4.8.7,1.2.8-.1.1-.6.6-.7.8h0ZM34.6,18.5s-.5-.2-.3-.3c.4-.2.8-.6.9-.8,0-.2.2,0,.1,0,0,.2-.1.6,0,.7,0,0,.3,0,.5,0,0,0,0,.2,0,.2-.1,0-.5,0-.5,0,0,0,0,1.4,0,1.5,0,.1.4.2.5,0,.1-.1.2,0,0,.1,0,0-.3.5-.5.5-.2,0-.5,0-.6-.3-.2-.3,0-1.3,0-2h0ZM33.3,20.7c-.2-.2-.4-.2-.4-.4-.5.2-.7.5-1,.7-.2-.2-.3-.5-.3-.8,0-.3.3-.7.5-.9,0,0,0,0,0,0,0,0-.2-.5,0-.6.1-.2.6-.8.9-.8.3,0,.4.3.7.5,0,0,0,1.2,0,1.3.2.3.3.3.5.2.1,0,.2,0,0,0,0,0-.5.6-.7.8h0ZM32.9,19.4c0-.2,0-.5,0-.6,0-.2-.4-.4-.4-.4-.1,0-.2,0-.3.2,0,.1,0,.5,0,.6.3.3.5.2.8.2h0ZM32.3,19.5c-.3.5,0,.6.1.8.2,0,.4-.2.5-.3,0,0,0-.3,0-.5-.3,0-.4.1-.6,0h0ZM39.8,16.4c.1.3.7.8.8.8.2-.3.4-.8.3-1.2,0-.3-.5-.7-.8-.8-.5.3-.5.8-.3,1.2h0ZM39.7,13.3c.2,0,.3-.1.5-.1,0,0,0-.2,0-.2,0,0,0-.3,0-.5-.3,0-.6-.2-.9-.4,0,0,0,0,.1,0-.3.6.1,1.1.3,1.2h0ZM39.1,11.7c.2.2.8.4,1.1.6,0-.2,0-.5,0-.6,0-.2-.6-.5-.7-.5-.1,0-.3.2-.4.4,0,.1,0,.1,0,.2h0ZM27.9,25.3c-.5,0-1,.3-1.2.8-.3.3-.3-.5-.9-.1-.2.3.4,1.1.2,1.1-.6.2-.6-1-.9-1-.5.2-1.8,1.4-.5,2.3,0-.6,1.2-1.3,1.6,0,1.2,0,1.6.6,1.8,1.1,1.8.3,1.3,1.5,1.2,1.5-.2-.3-.9-1.5-2.2-.6-.3.2-.8.4-1.1.1,0,.4.5.8.9.7,1.1-.3,1.4.7.5,1,.2.3.5.3.9,0,.5-.3.5-.6.7-.7.3,1.5-1.6,1.6-2.1,1.7,0,.3.3.4.7.5-2,0-2.3,1.9-2.2,3,.4,0,1.1-.9,1.1-.4-1.4,1.5-1.9,3.5-1.1,4.7.3-.1.5-.5.6-.8,0,0,.8.3-.4,1.6,0,.4-.5,1.4.4,1.7.3-.4.3-.7.4-1.1.3-.1.4.7.3,1-1.1.5-1,4,.3,5.9-.6-1.4-.5-3.1,0-4.5.4-1.1,1.3-3.5,1.3-3.5.5.6,1.2,3.3,1.2,4.4.7-.6.9-1.3,1.4-1.8.3,1,.4,1.6.6,2.5.3-.8,1-1.8,0-4.5.2-.2.6.9.8.9,0,0,.2-.6-.1-1.7-.8-.7-.9-1.7-.8-1.8,0,0,.4,1.1.8,1.1,0-.9.3-1.8.2-2.5,0-.2-.3-1.1-1.1-1.8-.5-.4-.7-1.3-.6-1.5.5.4.4.7.8.9.2-.4,0-1.7-.4-2.3-.3-.5-.1-.4.2-.1.4.5.2.5.6.7.8-1.9,0-2.3.1-2.4,0-.1.6.9,1.1.5-.8-.4-.8-1.1-.9-1.8,0-.6-.4-.8-.3-.9.8.6,1,0,1-.2-.2,0-.9.2-1-.9,0-.4-.7-.6-.7-.6.4,0,1.7-.2,1.4-1.5-.2.3-.6.8-1.4.6,0,0,.5-.1.4-.7-1.3.7-2.3-.7-3.6-.6h0ZM30.3,27c-.8.2-1.5,1.1-2.4.7-.1,0-.4-.2-.3-.3.2,0,.4.2.6.2,0,0-.5-.4,0-.9-.6.4-.8.3-.8,0s.8-.6,1.5-.4c.5.2,1,.6,1.5.7h0ZM28.9,27c0,.2-.3.5-.3.5l.9-.5c-.2-.1-.7-.4-.9-.5,0,0,.3.2.3.5h0ZM23.5,22.2c2.3.2,4.2,1.2,4.2,1.2v-14.8s-3.4-2.4-8.8-.2c-1.6.6-5.5,0-5.5,0v15.1c3.4.2,7.9-1.5,10.1-1.4h0ZM21.9,14.2c.4.1,1.1,0,1.3.6.2.6-.2,1.4-.7,1.4-.4,0-.8-.1-1.1,0-.1,0-.2,0-.2.2,0,.1-.2.2-.2,0,0-.2,0-.9,0-1.1s.2-.2.2,0c0,.2.1.4.3.6.1.1,1,.4,1.3.1.2-.2.2-.6,0-.8-.3-.2-1.3-.4-1.5-.7-.3-.5.2-.9.5-1.1.4-.2.8-.1,1-.1.1,0,.3,0,.4-.1,0-.2.1-.1.1,0,0,.5,0,.2,0,.7,0,.2,0,.2-.2,0,0-.1-.7-.6-1.2-.3-.4.3-.3.5.1.7h0ZM23.2,17.2c-.2.2-.3.4-.5.5-.1,0-.4-.3-.5-.4.3-.1.4-.3.5-.5.1.2.3.3.5.4h0ZM20.4,18.4c.2-.2.6-.9.7-1.1,0-.2.1-.1.1,0,0,.3-.1.8,0,1,0,0,.4,0,.5,0s0,.2,0,.2-.5,0-.5,0c0,0,0,.9,0,1,.2.2.3.3.5,0,.1-.1.2,0,0,.1,0,0-.4.4-.5.6,0,.2-.5,0-.6-.2-.2-.3-.1-.9-.1-1.6,0,0-.4-.2-.2-.3h0ZM20,16.6c-.1.1-.5,0-.6-.3-.2-.3-.1-1.1-.1-1.7,0,0-.1-.2-.2-.2-.2,0-.2,0,0-.2.3-.1.8-.9.8-1,0-.2.2,0,0,.2-.2.4-.1.8,0,.9,0,0,.6,0,.7,0,0,0,0,.2,0,.2,0,0-.9,0-.9,0,0,0,0,1.2.1,1.3,0,0,.2.2.3.1.1-.1.2,0,0,.1,0,0-.2.3-.4.4h0ZM17.3,18.4c.3-.2.4-.4.6-.6.2.3.2.5.4.6.2-.2.5-.4.7-.5.1,0,.4.2.4.7,0,.5,0,1.3,0,1.5s0,0,.2,0c.1,0,.2,0,0,.1-.1,0-.6.4-.8.6-.2-.3-.2-.6-.1-.9,0-.3,0-1,0-1.2s-.3-.2-.4-.3c-.2.1-.2.1-.3.3,0,.2,0,1.8,0,2-.4,0-.3,0-.5,0,0-.3,0-1.5,0-1.8,0-.3-.2-.4-.4-.6h0ZM15,19.3c.1-1,1.1-1.4,1.4-1.6,0,.3.4.8.6,1-.3.3-1.1.9-1.4,1.1.2.3.8.5,1,.3.2-.2.3,0,.2,0-.2.3-.4.6-.6.8-.4-.2-1.4-.8-1.2-1.7h0ZM14.7,14.6c.2-.4.8-.7,1.2-.9.1.1.3.4.5.6-.2.1-.4.3-.5.5,0,0-.6-.8-.9-.3-.2.3-.4,1,.2,1.5.3.2.6.3,1,.2-.2.3-.3.3-.4.6-.6.1-.8,0-1.1-.3-.6-.5-.4-1.4,0-1.9h0ZM17.4,13.2c-.1-.1-.1-.3-.3-.2-.5.2-1.1.3-1.5,0-.4-.3-.8-.4-.8-1.4,0-.6.5-1.1.9-1.3.4-.2,1.1,0,1.4,0,.2,0,.3,0,.3-.2,0-.1.2,0,.2,0,0,0,0,1.4,0,1.5,0,0-.2.1-.2,0,0-.1,0-.4,0-.6,0-.3-.9-.9-1.6-.1,0,0-.3.5-.2.8,0,.3,0,.6.2.8.5.7,1.2.5,1.6-.1.1-.2.1-.5.1-.6,0,0,.2,0,.2,0s0,.9,0,1c0,.1,0,.2.1.3.1.2,0,.3-.2.1h0ZM17.8,14c.2,0,.4.4.6.7,0,0,0,1.5,0,1.6,0,0,.2.2.3.1.1-.1.2,0,0,0,0,0-.5.5-.7.6-.2-.1-.2-.3-.2-.5-.3,0-.5.2-.7.5-.3-.1-.6-.4-.6-.7,0-.3.2-.5.4-.7,0,0,0,0-.1,0,0,0-.1-.6,0-.7.1-.3.6-.8,1-.8h0ZM20.4,10.6c-.1.1-.4.3-.6.4-.2,0-.3-.4-.4-.4,0,0-.1,0-.2.1,0,.2,0,1.8,0,2-.2,0-.4,0-.6,0,0-.2,0-1.6,0-1.8,0-.3-.2-.3-.6-.4.2-.2.5-.4.6-.6.3.2.4.2.6.4.2,0,.5-.3.6-.4.1.1.4.4.4.5.1-.1.3,0,.1.1h0ZM22.8,12.2c-.1,0-.4.4-.7.4-.7,0-1.6-.6-1.5-1.5.1-1,.9-1.4,1.3-1.4.4,0,.5.4.7.6-.3.3-.9.8-1.2,1.1,0,.2.5.8,1.2.6.4,0,.5,0,.2.2h0ZM25.6,10.4c0,0-.4.3-.7.6,0,0,.1,0,.2,0,.6.3.7.8.2,1.2-.3.2-.8.5-1.3.5-.3,0-1-.3-1.1-.4.3-.3.6-.5.8-.7-.3-.3-.7-.6-.4-1,.2-.3.8-.8,1.3-.8.5,0,.8.4,1,.5h0ZM26,13.2l.3.3v.3l-.2.2h-.2l-.2-.2v-.4s.3-.3.3-.3h0ZM26.6,11.6c-.8,0-.6-.3-.4-.3.6,0,.6.3.4.3h0ZM26.6,12c-.8,0-.6-.3-.4-.3.7,0,.6.3.4.3h0ZM26.9,16.5l-.3.3-.4.3c-.2-.2-.3-.3-.4-.4v-1.4s-.3-.2-.3-.2c-.2.2-.3,0-.2,0l.6-.6h.1s.3.4.3.4v1.5c.2.2.2.1.5.2h0ZM24.1,20c0-.3.2-.6.4-.8,0,0,0,0,0,0,0,0-.2-.6,0-.7.1-.2.6-.6,1-.7.2,0,.6.5.8.7,0,0,0,1.5,0,1.6,0,.1.3.2.4,0,0-.1.2,0,0,.1,0,0-.4.4-.5.5-.2-.1-.4-.3-.6-.5-.3,0-.7.3-1,.5-.3-.1-.4-.4-.4-.8h0ZM23.6,15.9c-.2-.6.2-1.1.4-1.3.2-.1.5-.4.7-.6.2.1.4.2.5.3,0,.1,0,.3-.3.3-.4,0-.6,0-.8.1-.2.2,0,.8.2,1,.2.2.7.4.7.2.1-.3.3-.1.1,0-.1.1-.3.5-.4.7-.4,0-.9-.2-1.1-.8h0ZM23.7,19.9l-.3.3-.3.3c-.2-.2-.3-.2-.4-.4v-1.3s-.4-.2-.4-.2c-.2.2-.3,0-.2,0l.6-.6h.2s.4.6.4.6v1.3c.2.1,0,.1.3.2h0ZM24.7,19.4c-.4.4,0,.7.2.8.2,0,.3-.1.5-.2,0,0,0-.1,0-.2s0-.2,0-.4c-.3,0-.4,0-.7-.1h0ZM25.4,19.3c0-.2,0-.4,0-.6,0-.2-.5-.5-.6-.5-.1,0-.1,0-.2.3,0,.1,0,.4,0,.5.3.2.5.3.8.3h0ZM24.5,11c.1-.1.3-.2.3-.3-.2-.2-.6-.4-.8-.4-.2,0-.5.1-.4.3.1.2.3.4.5.4,0,0,.2,0,.3,0h0ZM24.3,11.5c-.2.2-.5.4-.6.5,0,.2.7.6,1,.4.3-.1.5-.5.2-.6-.2-.1-.4-.2-.6-.3h0ZM21.3,11.2c.1-.1.5-.5.7-.7-.1,0-.4-.2-.4-.5-.4.3-.5.5-.3,1.2h0ZM17.9,16.3c0,0,0-.1,0-.2,0,0,0-.3,0-.5-.3.2-.4.3-.6.1-.4.4.2.6.4.7.1,0,.2,0,.3,0h0ZM17.9,15.4c0-.2,0-.3,0-.4,0-.2-.3-.5-.4-.5-.1,0-.3.2-.4.4,0,.1,0,.4,0,.6.3.3.4.3.8,0h0ZM15.9,18.2c-.8.5-.7,1.1-.4,1.4.2-.1.7-.5.9-.7-.1,0-.4-.5-.5-.7h0ZM10.9,20.2h1.9v-1.8h-1.9v1.8h0ZM10.9,13.8h1.9v-1.8h-1.9v1.8h0ZM8.7,17.5c-2.2,0-2.2,3.2,0,3.2s2.1-3.2,0-3.2h0ZM8.7,11.1c-2.1,0-2.1,3.2,0,3.2s2.1-3.2,0-3.2h0ZM27.5,29.9c-.1-.3-.3-.5-.6-.7-1.2-.6-3.6.7-3.6-1.2,0,0-.9.6-.5,1.3.9,1.5,3.4-.4,4.7.6h0ZM16.2,45.1c-.7.7-.9.7-.9,1,.2.4.5.7.8,1.1.4.3.6.6.3-.3-.2-.7-.1-1.1-.2-1.8h0ZM11.4,31.9h0c0,1.5-4,3.5-5.8,4.5,2.7.9,5.2-1.6,4.9-1-.4.7-3.6,3.5-5.1,5,1.1.3,2.1-.6,2.9-1.3.9-.7,2.3-2.6,2.1-1.7-2.4,2.9-4.2,9-3.1,9.4.7-1.4,3.4-8.4,3.6-8.4.2,0-.2,1.9-.3,3.1-.1,2.7-.2,3.9.4,6.5.3-.4.6-.4,1-.4,0-.3,0-.2-.3-.6-.8-1,.1-2.4-.3-3.2-.3-.7-.5-.1-.6-.9.2-.2.8-.3,1-.3.2-2.7,1.2-4.1.8-2.4-.2.9-.4,2.3-.3,2.4.1,0,.1,0,.2,0,0,0,4.6-7.4,2.1-2.3-.3.7-1.7,2.5-1.7,2.5.4.4.7.8.7,1,0,0,6.1-8,1.9-1.5-.3.4-1.5,1.7-1.8,2.1,0,0,.1,1.5.1,1.5.6-.4,1.5-1.3,1.9-1.9,0-.8.1-.7.2-1.5.2-.1.4.2.7.5.1.1,4.2-6.9,1.6-1.6-.4.8-1.3,1.8-1.3,1.9.2.2.4.8.7,1.4,0,0,5.4-7.7,2.1-1.9-.3.5-1.9,2.4-1.8,2.5.4,1,.7,1.9.7,1.9,0-.8-.3-2.2,1.3-3.5.2,1.3.6,1.4,1,1.8.2.2.6.9.6.3.1-1.9-.5-1.9-.9-2.7-.1-.2,0-.6,0-.6,3.9.1,3.7,3.7,4.4,3.7-.3-.9-.4-1.8,0-2.6-1-.7-.8-2-.6-2.5-1.2-1.2-.5-3.8,0-4.3-.7-1.1.2-1.8,0-2.5-.3-2.4-2.4-1.7-2.9-3.9-.3.4-.9,1.8-.7,2.2.3.5,1,.6,1.1.9,0,.2,0,.6,0,.7-.4,0-.7-.3-1.1-.5-.8-.3-2.8,1-2.9-.2,0-.8.3-.2.2-.9,0-.7-.4-.2-.4-1.1,0-.7.8-.9.9-1.2.1-.7,1.4,1,2.1-.8-.4,0-1.3-.2-1.2-.6.2-1.1.2-3.8-2.3-3.2-.9.2-3.4,1.5-3.7,0-.9,1.6.9,1.3,1.4,1.3-.2.1-.5.4-1.1.2-1.4.9-6.5,4.2-8,5,2,.9,5.1-1,5.1-1h0ZM12.9,49.7c-.5-.2-1-.3-1.5-.6.3,1.1.5,2,1.1,3.1.3.6.9-.9.3-2.5h0Z"/>
    </g>
  </g>
</svg>